<svg width="29" height="21" viewBox="0 0 29 21" fill="none" xmlns="http://www.w3.org/2000/svg">
<path d="M2.96924 0.552002H12.9692C13.4997 0.552002 14.0084 0.762716 14.3835 1.13779C14.7585 1.51286 14.9692 2.02157 14.9692 2.552C14.9692 3.08243 14.7585 3.59114 14.3835 3.96622C14.0084 4.34129 13.4997 4.552 12.9692 4.552H2.96924C2.43881 4.552 1.9301 4.34129 1.55502 3.96622C1.17995 3.59114 0.969238 3.08243 0.969238 2.552C0.969238 2.02157 1.17995 1.51286 1.55502 1.13779C1.9301 0.762716 2.43881 0.552002 2.96924 0.552002ZM16.9692 16.552H26.9692C27.4997 16.552 28.0084 16.7627 28.3835 17.1378C28.7585 17.5129 28.9692 18.0216 28.9692 18.552C28.9692 19.0824 28.7585 19.5911 28.3835 19.9662C28.0084 20.3413 27.4997 20.552 26.9692 20.552H16.9692C16.4388 20.552 15.9301 20.3413 15.555 19.9662C15.18 19.5911 14.9692 19.0824 14.9692 18.552C14.9692 18.0216 15.18 17.5129 15.555 17.1378C15.9301 16.7627 16.4388 16.552 16.9692 16.552ZM2.96924 8.552H26.9692C27.4997 8.552 28.0084 8.76272 28.3835 9.13779C28.7585 9.51286 28.9692 10.0216 28.9692 10.552C28.9692 11.0824 28.7585 11.5911 28.3835 11.9662C28.0084 12.3413 27.4997 12.552 26.9692 12.552H2.96924C2.43881 12.552 1.9301 12.3413 1.55502 11.9662C1.17995 11.5911 0.969238 11.0824 0.969238 10.552C0.969238 10.0216 1.17995 9.51286 1.55502 9.13779C1.9301 8.76272 2.43881 8.552 2.96924 8.552Z" fill="white"/>
</svg>
